<svg width="270" height="273" viewBox="0 0 270 273" fill="none" xmlns="http://www.w3.org/2000/svg">
<path fill-rule="evenodd" clip-rule="evenodd" d="M248.714 135.535C248.714 139.699 248.495 143.811 248.07 147.862C236.129 135.941 220.095 128.117 202.258 126.683C196.66 94.0529 168.232 69.2224 134.005 69.2224C95.757 69.2224 64.7511 100.228 64.7511 138.476C64.7511 173.115 90.1818 201.814 123.391 206.921C125.085 224.253 132.817 239.814 144.457 251.472C140.407 251.898 136.295 252.116 132.132 252.116C-37.0413 239.473 -5.29418 169.594 21.0754 111.552C29.8409 92.2583 38.0121 74.2725 38.0121 60.1315C38.0121 4.29211 59.6023 -11.965 127.983 9.84838C130.711 10.7188 133.601 11.1704 136.462 11.2901C198.842 13.9012 248.714 72.5986 248.714 135.535ZM144.457 251.472C198.999 245.742 242.338 202.403 248.07 147.862C261.352 161.124 269.569 179.457 269.569 199.709C269.569 240.172 236.768 272.973 196.305 272.973C176.052 272.973 157.719 264.756 144.457 251.472ZM196.305 126.445C198.309 126.445 200.295 126.525 202.258 126.683C202.916 130.516 203.258 134.456 203.258 138.476C203.258 176.724 172.252 207.729 134.005 207.729C130.396 207.729 126.851 207.453 123.391 206.921C123.159 204.549 123.041 202.143 123.041 199.709C123.041 159.246 155.842 126.445 196.305 126.445Z" fill="url(#paint0_linear_690_1230)"/>
<defs>
<linearGradient id="paint0_linear_690_1230" x1="53.7255" y1="68.9506" x2="293.575" y2="215.193" gradientUnits="userSpaceOnUse">
<stop stop-color="#EF953F"/>
<stop offset="1" stop-color="#567CDD"/>
</linearGradient>
</defs>
</svg>
