<svg width="31" height="30" viewBox="0 0 31 30" fill="none" xmlns="http://www.w3.org/2000/svg">
<path d="M26.1036 3.7323C25.6498 3.62105 25.1341 3.63857 24.5021 3.80982C20.8406 4.80232 6.2857 9.5323 5.08795 10.0623C3.78258 10.6398 3.02933 11.6573 3.0177 12.9923C3.0022 14.7773 4.44095 16.1786 6.1427 16.1186C6.19745 16.1173 8.30308 16.1461 9.50208 16.1586C9.50208 16.1586 10.5723 21.5098 10.5982 21.5736C10.9106 22.3411 11.6433 22.5698 12.2755 22.2936L15.8302 20.7298C16.2326 21.1261 18.9381 23.7398 19.2286 23.9736C20.0943 24.6686 20.8425 24.8873 21.7677 24.9111C23.2573 24.9498 24.5586 24.0736 25.2442 22.6448C25.6746 21.7486 27.6805 9.19732 27.8615 7.95231C28.1488 5.97606 28.0838 5.19981 27.2755 4.39606C26.9506 4.07356 26.5575 3.8423 26.1036 3.7323ZM25.5176 6.15605C25.5176 6.15605 25.5783 6.3773 25.4005 7.5998C24.7641 11.9773 23.256 20.9336 22.9396 21.6673C22.7235 22.1698 22.2903 22.4236 21.8067 22.4098C21.3811 22.3986 21.1692 22.3236 20.7911 22.0198C20.5966 21.8636 19.7215 21.0323 18.4865 19.8311C18.471 19.8161 16.0232 17.4273 16.0232 17.4273C15.7846 17.1898 15.5603 17.0485 15.0905 17.0435C14.8172 17.0435 14.4566 17.2511 14.4566 17.2511L12.5768 18.8423L11.924 15.6498L19.7755 12.2898C20.4097 12.0173 20.7123 11.2823 20.4396 10.6485C20.167 10.0135 19.4332 9.71107 18.799 9.98357L10.2833 13.6573C9.79845 13.6548 6.18533 13.6136 6.06458 13.6186C5.78645 13.6273 5.51458 13.3548 5.5177 12.9923C5.5202 12.7023 5.64808 12.5298 6.10358 12.3286C7.15933 11.8611 21.5385 7.19729 25.0875 6.23604C25.4222 6.14479 25.5176 6.15605 25.5176 6.15605Z" fill="url(#paint0_linear_397_542)"/>
<defs>
<linearGradient id="paint0_linear_397_542" x1="8" y1="9" x2="28" y2="23.5" gradientUnits="userSpaceOnUse">
<stop stop-color="#EF953F"/>
<stop offset="1" stop-color="#567CDD"/>
</linearGradient>
</defs>
</svg>
